<svg xmlns="http://www.w3.org/2000/svg" width="579.18" height="96.698" viewBox="0 0 579.18 96.698">
  <g id="Group_178" data-name="Group 178" transform="translate(-331.41 -81.651)">
    <g id="Group_23" data-name="Group 23">
      <g id="Group_22" data-name="Group 22">
        <path id="Path_1866" data-name="Path 1866" d="M358.994,153.552c15.265-20.2,36.942-55.9,36.942-55.9,2.863-4.015,7.52-16,12.018-16s9.331,12.182,12.327,16.193c0,0,27.678,42.293,36.942,55.708s28.089,14,28.089,14c0,3.235-14.03,10.642-16.889,10.642a12.314,12.314,0,0,1-10.35-5.086l-49.879-67.749L358.647,173.11a11.691,11.691,0,0,1-9.943,5.239c-3.13,0-17.294-8.174-17.294-11.566C331.41,166.783,344.04,173.358,358.994,153.552Z" fill="#153860"/>
      </g>
    </g>
    <g id="Group_24" data-name="Group 24">
      <path id="Path_1867" data-name="Path 1867" d="M563.3,141.015a14.966,14.966,0,0,1-1.347,7.078q-3.374,6.211-19.776,6.209H509.212v-9.15h34.5q9,0,8.987-3.574v-3.2q0-3.837-10.185-3.839H527.863a26.5,26.5,0,0,1-12.057-2.6q-6.563-3.274-6.558-9.486v-3.466q0-8.17,7.865-11.03,4.836-1.809,14.723-1.805h7.23v9.036H530.56q-10.749,0-10.751,3.724v2.824q0,3.5,11.35,3.5h11.13a34.3,34.3,0,0,1,13.449,2.33q7.523,3.208,7.527,10.132v1.658C563.291,140.107,563.3,140.662,563.3,141.015Z" fill="#153860"/>
      <path id="Path_1868" data-name="Path 1868" d="M634.846,139.956q0,8.513-8.13,11.86Q621.325,154,611.358,154H599.786q-10.526,0-15.507-1.96-7.949-3.151-7.946-12.082v-34.3h10.6v33.731q0,5.463,11.723,5.46l14.2.041q11.465,0,11.466-5.462V105.66h10.521Z" fill="#153860"/>
      <path id="Path_1869" data-name="Path 1869" d="M727.747,154.267H717.184v-30.84l-22.549,27.939a7.844,7.844,0,0,1-12.36,0L659.31,123.244v30.979l-10.562.044V111.42a5,5,0,0,1,1.589-3.918,5.911,5.911,0,0,1,4.105-1.43,7.115,7.115,0,0,1,5.765,2.56l28.358,33.737,27.688-33.776A6.908,6.908,0,0,1,721.871,106a5.828,5.828,0,0,1,4.231,1.6,5.543,5.543,0,0,1,1.645,4.16Z" fill="#153860"/>
      <path id="Path_1870" data-name="Path 1870" d="M820.272,154.267H809.708v-30.84l-22.55,27.939a7.845,7.845,0,0,1-12.361,0l-22.965-28.122v30.979l-10.564.044V111.42a5,5,0,0,1,1.594-3.918,5.911,5.911,0,0,1,4.1-1.43,7.119,7.119,0,0,1,5.767,2.56l28.353,33.737,27.684-33.776A6.921,6.921,0,0,1,814.393,106a5.826,5.826,0,0,1,4.233,1.6,5.539,5.539,0,0,1,1.646,4.16Z" fill="#153860"/>
      <path id="Path_1871" data-name="Path 1871" d="M844.17,154.267H833.606V105.621H844.17Z" fill="#153860"/>
      <path id="Path_1872" data-name="Path 1872" d="M910.59,114.96h-21.5v39.307H878.562V114.96h-21.43v-9.075H910.59Z" fill="#153860"/>
    </g>
  </g>
</svg>
