<!DOCTYPE svg PUBLIC "-//W3C//DTD SVG 1.1//EN" "http://www.w3.org/Graphics/SVG/1.1/DTD/svg11.dtd">

<!-- Uploaded to: SVG Repo, www.svgrepo.com, Transformed by: SVG Repo Mixer Tools -->
<svg fill="#ffffff" width="256px" height="256px" viewBox="0 0 36 36" version="1.1" preserveAspectRatio="xMidYMid meet" xmlns="http://www.w3.org/2000/svg" xmlns:xlink="http://www.w3.org/1999/xlink">

<g id="SVGRepo_bgCarrier" stroke-width="0"/>

<g id="SVGRepo_tracerCarrier" stroke-linecap="round" stroke-linejoin="round" stroke="#ffffff" stroke-width="0.072"/>

<g id="SVGRepo_iconCarrier"> <title>history-line</title> <path d="M18,9.83a1,1,0,0,0-1,1v8.72l5.9,4A1,1,0,0,0,24,21.88l-5-3.39V10.83A1,1,0,0,0,18,9.83Z" class="clr-i-outline clr-i-outline-path-1"/>

<path d="M18,2A16.09,16.09,0,0,0,4,10.26V5.2a1,1,0,0,0-2,0V14h8.8a1,1,0,0,0,0-2H5.35A14,14,0,1,1,8.58,28.35a1,1,0,0,0-1.35,1.48A16,16,0,1,0,18,2Z" stroke="#ffffff" stroke-width="1.0" stroke-linecap="round" class="clr-i-outline clr-i-outline-path-2"/> <rect x="0" y="0" width="36" height="36" fill-opacity="0"/> </g>

</svg>